<svg id="visual" viewBox="0 0 960 540" width="960" height="540" xmlns="http://www.w3.org/2000/svg" xmlns:xlink="http://www.w3.org/1999/xlink" version="1.1"><rect x="0" y="0" width="960" height="540" fill="#f6f6f6"></rect><defs><linearGradient id="grad1_0" x1="43.8%" y1="0%" x2="100%" y2="100%"><stop offset="14.444444444444446%" stop-color="#3cbdfa" stop-opacity="1"></stop><stop offset="85.55555555555554%" stop-color="#3cbdfa" stop-opacity="1"></stop></linearGradient></defs><defs><linearGradient id="grad1_1" x1="43.8%" y1="0%" x2="100%" y2="100%"><stop offset="14.444444444444446%" stop-color="#3cbdfa" stop-opacity="1"></stop><stop offset="85.55555555555554%" stop-color="#f6f6f6" stop-opacity="1"></stop></linearGradient></defs><defs><linearGradient id="grad2_0" x1="0%" y1="0%" x2="56.3%" y2="100%"><stop offset="14.444444444444446%" stop-color="#3cbdfa" stop-opacity="1"></stop><stop offset="85.55555555555554%" stop-color="#3cbdfa" stop-opacity="1"></stop></linearGradient></defs><defs><linearGradient id="grad2_1" x1="0%" y1="0%" x2="56.3%" y2="100%"><stop offset="14.444444444444446%" stop-color="#f6f6f6" stop-opacity="1"></stop><stop offset="85.55555555555554%" stop-color="#3cbdfa" stop-opacity="1"></stop></linearGradient></defs><g transform="translate(960, 0)"><path d="M0 243C-43.5 237.2 -87.1 231.5 -121.5 210.4C-155.9 189.4 -181.3 153.1 -200.1 115.5C-218.8 77.9 -230.9 38.9 -243 0L0 0Z" fill="#acd9f8"></path><path d="M0 121.5C-21.8 118.6 -43.5 115.7 -60.7 105.2C-78 94.7 -90.7 76.6 -100 57.8C-109.4 38.9 -115.4 19.5 -121.5 0L0 0Z" fill="#3cbdfa"></path></g><g transform="translate(0, 540)"><path d="M0 -243C39.2 -231.4 78.4 -219.7 116 -200.9C153.6 -182.1 189.5 -156.2 210.4 -121.5C231.3 -86.8 237.2 -43.4 243 0L0 0Z" fill="#acd9f8"></path><path d="M0 -121.5C19.6 -115.7 39.2 -109.9 58 -100.5C76.8 -91.1 94.8 -78.1 105.2 -60.8C115.7 -43.4 118.6 -21.7 121.5 0L0 0Z" fill="#3cbdfa"></path></g></svg>