<!--?xml version="1.0" standalone="no"?-->
              <svg id="sw-js-blob-svg" viewBox="0 0 100 100" xmlns="http://www.w3.org/2000/svg" version="1.1">
                    <defs> 
                        <linearGradient id="sw-gradient" x1="0" x2="1" y1="1" y2="0">
                            <stop id="stop1" stop-color="rgba(1.656, 242.984, 255, 1)" offset="0%"></stop>
                            <stop id="stop2" stop-color="rgba(30.156, 88.166, 241.112, 1)" offset="100%"></stop>
                        </linearGradient>
                    </defs>
                <path fill="url(#sw-gradient)" d="M27.5,-31.7C35.3,-26.2,41,-17.2,42.4,-7.7C43.8,1.8,41,11.9,35.6,20C30.3,28.1,22.5,34.1,13.5,37.6C4.6,41,-5.5,41.9,-14.1,38.8C-22.7,35.7,-29.9,28.5,-33.7,20.3C-37.5,12,-37.9,2.6,-36.1,-6.1C-34.2,-14.8,-30.1,-22.9,-23.7,-28.6C-17.3,-34.3,-8.6,-37.6,0.6,-38.4C9.9,-39.1,19.7,-37.2,27.5,-31.7Z" width="100%" height="100%" transform="translate(50 50)" stroke-width="0" style="transition: all 0.3s ease 0s;" stroke="url(#sw-gradient)"></path>
              </svg>