<!--?xml version="1.0" standalone="no"?-->
              <svg id="sw-js-blob-svg" viewBox="0 0 100 100" xmlns="http://www.w3.org/2000/svg" version="1.1">
                    <defs> 
                        <linearGradient id="sw-gradient" x1="0" x2="1" y1="1" y2="0">
                            <stop id="stop1" stop-color="rgba(55, 94.995, 248, 1)" offset="0%"></stop>
                            <stop id="stop2" stop-color="rgba(16.167, 235.647, 208.878, 1)" offset="100%"></stop>
                        </linearGradient>
                    </defs>
                <path fill="url(#sw-gradient)" d="M25.9,-29.7C32.5,-25.4,36,-16.2,36.5,-7.3C37.1,1.6,34.7,10.1,30.4,17.5C26.1,24.9,19.9,31.2,12.3,34C4.8,36.8,-4.1,36.1,-13.5,34C-23,31.9,-33,28.4,-37.7,21.3C-42.4,14.1,-41.8,3.4,-39.8,-6.8C-37.8,-17.1,-34.3,-26.9,-27.4,-31.1C-20.6,-35.4,-10.3,-34,-0.3,-33.6C9.7,-33.3,19.4,-33.9,25.9,-29.7Z" width="100%" height="100%" transform="translate(50 50)" stroke-width="0" style="transition: all 0.3s ease 0s;"></path>
              </svg>