<!--?xml version="1.0" standalone="no"?-->
              <svg id="sw-js-blob-svg" viewBox="0 0 100 100" xmlns="http://www.w3.org/2000/svg" version="1.1">
                    <defs> 
                        <linearGradient id="sw-gradient" x1="0" x2="1" y1="1" y2="0">
                            <stop id="stop1" stop-color="rgba(55, 94.995, 248, 1)" offset="0%"></stop>
                            <stop id="stop2" stop-color="rgba(16.167, 235.647, 208.878, 1)" offset="100%"></stop>
                        </linearGradient>
                    </defs>
                <path fill="url(#sw-gradient)" d="M22.4,-31.9C27.5,-27,29.2,-18.5,30.7,-10.7C32.3,-2.9,33.7,4.3,33.2,12.3C32.7,20.3,30.1,29.1,24.2,33.3C18.4,37.5,9.2,37.1,1.5,35C-6.1,32.8,-12.2,29,-17.1,24.5C-22,20,-25.8,14.8,-27.8,9C-29.8,3.1,-30.1,-3.4,-29.1,-10.4C-28.1,-17.5,-25.9,-25.1,-20.9,-30C-15.8,-34.8,-7.9,-37,0.3,-37.4C8.6,-37.9,17.2,-36.7,22.4,-31.9Z" width="100%" height="100%" transform="translate(50 50)" stroke-width="0" style="transition: all 0.3s ease 0s;"></path>
              </svg>