<?xml version="1.0" standalone="no"?>
<svg xmlns:xlink="http://www.w3.org/1999/xlink" id="wave" style="transform:rotate(0deg); transition: 0.3s" viewBox="0 0 1440 310" version="1.1" xmlns="http://www.w3.org/2000/svg"><defs><linearGradient id="sw-gradient-0" x1="0" x2="0" y1="1" y2="0"><stop stop-color="rgba(62, 133.235, 243, 1)" offset="0%"/><stop stop-color="rgba(11, 247.56, 255, 1)" offset="100%"/></linearGradient></defs><path style="transform:translate(0, 0px); opacity:1" fill="url(#sw-gradient-0)" d="M0,279L26.7,279C53.3,279,107,279,160,279C213.3,279,267,279,320,279C373.3,279,427,279,480,242.8C533.3,207,587,134,640,118.8C693.3,103,747,145,800,149.8C853.3,155,907,124,960,139.5C1013.3,155,1067,217,1120,206.7C1173.3,196,1227,114,1280,82.7C1333.3,52,1387,72,1440,87.8C1493.3,103,1547,114,1600,118.8C1653.3,124,1707,124,1760,134.3C1813.3,145,1867,165,1920,149.8C1973.3,134,2027,83,2080,98.2C2133.3,114,2187,196,2240,201.5C2293.3,207,2347,134,2400,93C2453.3,52,2507,41,2560,56.8C2613.3,72,2667,114,2720,134.3C2773.3,155,2827,155,2880,155C2933.3,155,2987,155,3040,134.3C3093.3,114,3147,72,3200,46.5C3253.3,21,3307,10,3360,10.3C3413.3,10,3467,21,3520,46.5C3573.3,72,3627,114,3680,113.7C3733.3,114,3787,72,3813,51.7L3840,31L3840,310L3813.3,310C3786.7,310,3733,310,3680,310C3626.7,310,3573,310,3520,310C3466.7,310,3413,310,3360,310C3306.7,310,3253,310,3200,310C3146.7,310,3093,310,3040,310C2986.7,310,2933,310,2880,310C2826.7,310,2773,310,2720,310C2666.7,310,2613,310,2560,310C2506.7,310,2453,310,2400,310C2346.7,310,2293,310,2240,310C2186.7,310,2133,310,2080,310C2026.7,310,1973,310,1920,310C1866.7,310,1813,310,1760,310C1706.7,310,1653,310,1600,310C1546.7,310,1493,310,1440,310C1386.7,310,1333,310,1280,310C1226.7,310,1173,310,1120,310C1066.7,310,1013,310,960,310C906.7,310,853,310,800,310C746.7,310,693,310,640,310C586.7,310,533,310,480,310C426.7,310,373,310,320,310C266.7,310,213,310,160,310C106.7,310,53,310,27,310L0,310Z"/><defs><linearGradient id="sw-gradient-1" x1="0" x2="0" y1="1" y2="0"><stop stop-color="rgba(62, 108.706, 243, 1)" offset="0%"/><stop stop-color="rgba(11, 255, 245.907, 1)" offset="100%"/></linearGradient></defs><path style="transform:translate(0, 50px); opacity:0.9" fill="url(#sw-gradient-1)" d="M0,93L26.7,113.7C53.3,134,107,176,160,180.8C213.3,186,267,155,320,155C373.3,155,427,186,480,211.8C533.3,238,587,258,640,227.3C693.3,196,747,114,800,67.2C853.3,21,907,10,960,41.3C1013.3,72,1067,145,1120,155C1173.3,165,1227,114,1280,87.8C1333.3,62,1387,62,1440,77.5C1493.3,93,1547,124,1600,118.8C1653.3,114,1707,72,1760,72.3C1813.3,72,1867,114,1920,134.3C1973.3,155,2027,155,2080,134.3C2133.3,114,2187,72,2240,82.7C2293.3,93,2347,155,2400,165.3C2453.3,176,2507,134,2560,98.2C2613.3,62,2667,31,2720,46.5C2773.3,62,2827,124,2880,160.2C2933.3,196,2987,207,3040,201.5C3093.3,196,3147,176,3200,165.3C3253.3,155,3307,155,3360,144.7C3413.3,134,3467,114,3520,113.7C3573.3,114,3627,134,3680,134.3C3733.3,134,3787,114,3813,103.3L3840,93L3840,310L3813.3,310C3786.7,310,3733,310,3680,310C3626.7,310,3573,310,3520,310C3466.7,310,3413,310,3360,310C3306.7,310,3253,310,3200,310C3146.7,310,3093,310,3040,310C2986.7,310,2933,310,2880,310C2826.7,310,2773,310,2720,310C2666.7,310,2613,310,2560,310C2506.7,310,2453,310,2400,310C2346.7,310,2293,310,2240,310C2186.7,310,2133,310,2080,310C2026.7,310,1973,310,1920,310C1866.7,310,1813,310,1760,310C1706.7,310,1653,310,1600,310C1546.7,310,1493,310,1440,310C1386.7,310,1333,310,1280,310C1226.7,310,1173,310,1120,310C1066.7,310,1013,310,960,310C906.7,310,853,310,800,310C746.7,310,693,310,640,310C586.7,310,533,310,480,310C426.7,310,373,310,320,310C266.7,310,213,310,160,310C106.7,310,53,310,27,310L0,310Z"/><defs><linearGradient id="sw-gradient-2" x1="0" x2="0" y1="1" y2="0"><stop stop-color="rgba(62, 127.103, 243, 1)" offset="0%"/><stop stop-color="rgba(11, 231.028, 255, 1)" offset="100%"/></linearGradient></defs><path style="transform:translate(0, 100px); opacity:0.8" fill="url(#sw-gradient-2)" d="M0,124L26.7,113.7C53.3,103,107,83,160,72.3C213.3,62,267,62,320,72.3C373.3,83,427,103,480,129.2C533.3,155,587,186,640,191.2C693.3,196,747,176,800,144.7C853.3,114,907,72,960,62C1013.3,52,1067,72,1120,98.2C1173.3,124,1227,155,1280,175.7C1333.3,196,1387,207,1440,196.3C1493.3,186,1547,155,1600,149.8C1653.3,145,1707,165,1760,180.8C1813.3,196,1867,207,1920,201.5C1973.3,196,2027,176,2080,149.8C2133.3,124,2187,93,2240,98.2C2293.3,103,2347,145,2400,155C2453.3,165,2507,145,2560,113.7C2613.3,83,2667,41,2720,46.5C2773.3,52,2827,103,2880,103.3C2933.3,103,2987,52,3040,62C3093.3,72,3147,145,3200,165.3C3253.3,186,3307,155,3360,165.3C3413.3,176,3467,227,3520,217C3573.3,207,3627,134,3680,87.8C3733.3,41,3787,21,3813,10.3L3840,0L3840,310L3813.3,310C3786.7,310,3733,310,3680,310C3626.7,310,3573,310,3520,310C3466.7,310,3413,310,3360,310C3306.7,310,3253,310,3200,310C3146.7,310,3093,310,3040,310C2986.7,310,2933,310,2880,310C2826.7,310,2773,310,2720,310C2666.7,310,2613,310,2560,310C2506.7,310,2453,310,2400,310C2346.7,310,2293,310,2240,310C2186.7,310,2133,310,2080,310C2026.7,310,1973,310,1920,310C1866.7,310,1813,310,1760,310C1706.7,310,1653,310,1600,310C1546.7,310,1493,310,1440,310C1386.7,310,1333,310,1280,310C1226.7,310,1173,310,1120,310C1066.7,310,1013,310,960,310C906.7,310,853,310,800,310C746.7,310,693,310,640,310C586.7,310,533,310,480,310C426.7,310,373,310,320,310C266.7,310,213,310,160,310C106.7,310,53,310,27,310L0,310Z"/></svg>